<svg height="512pt" viewBox="-76 0 512 512" width="512pt" xmlns="http://www.w3.org/2000/svg"><path d="m340 236h-22v-98c0-76.09375-61.90625-138-138-138s-138 61.90625-138 138v98h-22c-11.046875 0-20 8.953125-20 20v236c0 11.046875 8.953125 20 20 20h320c11.046875 0 20-8.953125 20-20v-236c0-11.046875-8.953125-20-20-20zm-258-98c0-54.039062 43.960938-98 98-98s98 43.960938 98 98v98h-196zm238 334h-280v-196h280zm-120-128v60c0 11.046875-8.953125 20-20 20s-20-8.953125-20-20v-60c0-11.046875 8.953125-20 20-20s20 8.953125 20 20zm0 0"/></svg>